<svg id="Layer_1" data-name="Layer 1" xmlns="http://www.w3.org/2000/svg" viewBox="0 0 374 384"><defs><style>.cls-1{fill:#fff;}</style></defs><title>download_icon</title><g id="_Группа_" data-name="&lt;Группа&gt;"><g id="_Группа_2" data-name="&lt;Группа&gt;"><path id="_Контур_" data-name="&lt;Контур&gt;" class="cls-1" d="M374,347.13H0V219a20.49,20.49,0,0,1,41,0v87.1H333V219a20.49,20.49,0,0,1,41,0Z"/></g><g id="_Группа_3" data-name="&lt;Группа&gt;"><g id="_Группа_4" data-name="&lt;Группа&gt;"><path id="_Контур_2" data-name="&lt;Контур&gt;" class="cls-1" d="M187,260.89,84.74,165.74a20.49,20.49,0,0,1,27.92-30L187,204.91l74.35-69.18a20.49,20.49,0,0,1,27.92,30Z"/></g><g id="_Группа_5" data-name="&lt;Группа&gt;"><path id="_Контур_3" data-name="&lt;Контур&gt;" class="cls-1" d="M187,253.39a20.49,20.49,0,0,1-20.49-20.49V34.71a20.49,20.49,0,0,1,41,0V232.9A20.49,20.49,0,0,1,187,253.39Z"/></g></g></g></svg>