<svg id="Layer_1" data-name="Layer 1" xmlns="http://www.w3.org/2000/svg" xmlns:xlink="http://www.w3.org/1999/xlink" viewBox="0 0 374 384"><defs><style>.cls-1,.cls-10,.cls-11,.cls-12,.cls-13,.cls-2,.cls-3,.cls-4,.cls-5,.cls-6,.cls-7{isolation:isolate;}.cls-1,.cls-2,.cls-3,.cls-4,.cls-5,.cls-7{font-size:19.86px;font-family:PTSans-Regular, PT Sans;}.cls-1,.cls-10,.cls-11,.cls-12,.cls-13,.cls-2,.cls-3,.cls-4,.cls-5,.cls-7{fill:#fff;}.cls-2{letter-spacing:-0.02em;}.cls-3{letter-spacing:-0.02em;}.cls-4{letter-spacing:-0.01em;}.cls-5{letter-spacing:-0.09em;}.cls-7{letter-spacing:-0.08em;}.cls-8{fill:#6680cc;}.cls-9{fill:url(#Безымянный_градиент_5);}.cls-10,.cls-11,.cls-12,.cls-13{font-size:65.52px;font-family:PTSans-Bold, PT Sans;font-weight:700;}.cls-10{letter-spacing:0.02em;}.cls-11{letter-spacing:0em;}.cls-12{letter-spacing:0.01em;}.cls-13{letter-spacing:-0.07em;}</style><linearGradient id="Безымянный_градиент_5" x1="160.1" y1="539.55" x2="329.48" y2="539.55" gradientTransform="translate(0 -346)" gradientUnits="userSpaceOnUse"><stop offset="0" stop-color="#69c"/><stop offset="0.19" stop-color="#6696cc"/><stop offset="0.22" stop-color="#6695cc"/><stop offset="0.46" stop-color="#6692cc"/><stop offset="0.51" stop-color="#6690cc"/><stop offset="0.61" stop-color="#668dcc"/><stop offset="0.66" stop-color="#68c"/><stop offset="0.8" stop-color="#6685cc"/><stop offset="0.91" stop-color="#6683cc"/><stop offset="1" stop-color="#6680cc"/></linearGradient></defs><title>logo</title><text class="cls-1" transform="translate(20.22 379.99)">н</text><text class="cls-2" transform="translate(30.93 379.99)">е</text><text class="cls-1" transform="translate(40.61 379.99)">до</text><text class="cls-3" transform="translate(62 379.99)">с</text><text class="cls-1" transform="translate(70.65 379.99)">тающий</text><text class="cls-4" transform="translate(144.66 379.99)">э</text><text class="cls-1" transform="translate(153.78 379.99)">лемен</text><text class="cls-5" transform="translate(207.48 379.99)">т</text><g class="cls-6"><text class="cls-1" transform="translate(214.78 379.99)"><tspan xml:space="preserve"> ваше</tspan></text></g><text class="cls-7" transform="translate(264.57 379.99)">г</text><text class="cls-1" transform="translate(271.58 379.99)">о бизн</text><text class="cls-4" transform="translate(328.53 379.99)">е</text><text class="cls-1" transform="translate(338.39 379.99)">са</text><path class="cls-8" d="M137.15,85.57h-85V.53h85Zm0,0h-85v85.06h85Zm0,85h-85v85.14h85ZM222.13.48h-85V85.54h85Zm0,85h-85v85.06h85ZM306,.45H221V85.54h85Z"/><path class="cls-9" d="M244.24,192.89l-.21,85,85,.21.21-85Zm-83.93-.21-.21,85,85,.21.21-85ZM244.45,109l-.21,85,85,.21.21-85Z"/><g class="cls-6"><text class="cls-10" transform="translate(4.94 341.78) scale(0.91 1)">Проф</text><text class="cls-11" transform="translate(153.79 341.78) scale(0.91 1)">Э</text></g><text class="cls-12" transform="translate(190.22 341.78) scale(0.91 1)">к</text><text class="cls-10" transform="translate(219.99 341.78) scale(0.91 1)">спе</text><text class="cls-10" transform="translate(312.03 341.78) scale(0.91 1)">р</text><text class="cls-13" transform="translate(345.14 341.78) scale(0.91 1)">т</text></svg>