<svg id="Layer_1" data-name="Layer 1" xmlns="http://www.w3.org/2000/svg" viewBox="0 0 138 135"><defs><style>.cls-1,.cls-2{fill:#fff;}.cls-2{fill-rule:evenodd;}</style></defs><title>main_mail_pic</title><rect class="cls-1" x="5" y="131" width="69.51" height="4"/><path class="cls-2" d="M70,1.63h26c1.39,0,2.52,1.58,2.52,3.53V24.81c0,2-1.14,3.55-2.52,3.55H70c-1.4,0-2.53-1.59-2.53-3.55V5.17C67.51,3.21,68.64,1.63,70,1.63Z"/><path class="cls-2" d="M98.6,34H67.51C-4,57,75.9,95.21,79.27,135h1.6V81.82a12.69,12.69,0,0,1-8.73-7.39,11.76,11.76,0,0,1-1.26-4.08.51.51,0,0,1,0-.14,10.18,10.18,0,0,1-.11-1.32v-.08c0-.36-.08-.69-.08-1,0-7.92,5.54-14.3,12.38-14.3s12.39,6.39,12.39,14.3c0,.37-.06.71-.08,1.08v0c0,.23-.06.43-.06.63s0,.6-.08.89A12,12,0,0,1,94,74.34a12.7,12.7,0,0,1-8.76,7.49V135h1.57C90.19,95.21,170.11,57,98.6,34Z"/></svg>