<svg id="Layer_1" data-name="Layer 1" xmlns="http://www.w3.org/2000/svg" viewBox="0 0 138 135"><defs><style>.cls-1,.cls-2{fill:#fff;}.cls-1{fill-rule:evenodd;}.cls-2{stroke:#fff;stroke-linecap:round;stroke-linejoin:round;stroke-width:2.16px;}</style></defs><title>main_map_pic</title><path class="cls-1" d="M53.1,57.21a19,19,0,1,1-6.93,25.9A19,19,0,0,1,53.1,57.21Z"/><path class="cls-1" d="M84.41,49.36,81.82,29.6l6.94-7.95,2.41,21Zm9.9-10.26L91.73,19.34l6.94-7.95,2.4,20.94Zm10.17-10.77L101.9,8.58,108.84.63l2.4,21Z"/><path class="cls-1" d="M106.25,56.19l-19.86-1.5,6.36-7.12,21.06,1.23ZM117,43.93,97.1,42.77l6.24-7.22,21.06.88ZM128.06,32.3,108.19,31l6.29-7.21,21.06,1Z"/><line class="cls-2" x1="113.23" y1="25.35" x2="67.57" y2="71.59"/><path class="cls-1" d="M31.78,126.5A63.42,63.42,0,0,1,74,9.05l.48,14.71a49.07,49.07,0,1,0,37.45,40.14l14.4-.55A63.39,63.39,0,0,1,31.78,126.5Z"/></svg>